HIERARCHY
ROOT Root
{
  OFFSET 0.0 0.0 0.0
  CHANNELS 6 Xposition Yposition Zposition Zrotation Yrotation Xrotation
  JOINT Hips
  {
    OFFSET 0.0 100.0 0.0
    CHANNELS 6 Xposition Yposition Zposition Zrotation Yrotation Xrotation
    JOINT Spine1
    {
      OFFSET -0.013727 5.003763 -0.053727
      CHANNELS 3 Zrotation Yrotation Xrotation
      JOINT Spine2
      {
        OFFSET -0.0 7.125301 -0.029825
        CHANNELS 3 Zrotation Yrotation Xrotation
        JOINT Chest
        {
          OFFSET -1e-06 7.550063 -0.815971
          CHANNELS 3 Zrotation Yrotation Xrotation
          JOINT Neck1
          {
            OFFSET -0.181677 26.311295 -0.553348
            CHANNELS 3 Zrotation Yrotation Xrotation
            JOINT Neck2
            {
              OFFSET -3e-06 7.709397 2.302585
              CHANNELS 3 Zrotation Yrotation Xrotation
              JOINT Head
              {
                OFFSET -5e-06 6.128916 1.953709
                CHANNELS 3 Zrotation Yrotation Xrotation
                JOINT HeadEnd
                {
                  OFFSET 0.003598 16.065403 -1.835379
                  CHANNELS 3 Zrotation Yrotation Xrotation
                }
                JOINT Jaw
                {
                  OFFSET 0.002637 0.475592 3.094941
                  CHANNELS 3 Zrotation Yrotation Xrotation
                }
                JOINT LeftEye
                {
                  OFFSET 3.206381 5.380205 7.586883
                  CHANNELS 3 Zrotation Yrotation Xrotation
                }
                JOINT RightEye
                {
                  OFFSET -3.22244 5.361869 7.558234
                  CHANNELS 3 Zrotation Yrotation Xrotation
                }
              }
            }
          }
          JOINT LeftShoulder
          {
            OFFSET 1.621652 23.237164 5.113413
            CHANNELS 3 Zrotation Yrotation Xrotation
            JOINT LeftArm
            {
              OFFSET 14.919846 2e-06 -5.502326
              CHANNELS 3 Zrotation Yrotation Xrotation
              JOINT LeftForeArm
              {
                OFFSET 28.739307 0.0 -0.002588
                CHANNELS 3 Zrotation Yrotation Xrotation
                JOINT LeftHand
                {
                  OFFSET 27.093981 -1e-06 0.002609
                  CHANNELS 3 Zrotation Yrotation Xrotation
                  JOINT LeftHandThumb1
                  {
                    OFFSET 2.276482 -1.392045 3.191413
                    CHANNELS 3 Zrotation Yrotation Xrotation
                    JOINT LeftHandThumb2
                    {
                      OFFSET 4.012836 -1.828127 1.641654
                      CHANNELS 3 Zrotation Yrotation Xrotation
                      JOINT LeftHandThumb3
                      {
                        OFFSET 2.798515 0.0 -3e-06
                        CHANNELS 3 Zrotation Yrotation Xrotation
                        JOINT LeftHandThumbEnd
                        {
                          OFFSET 3.180793 -4e-06 4e-06
                          CHANNELS 3 Zrotation Yrotation Xrotation
                        }
                      }
                    }
                  }
                  JOINT LeftHandIndex1
                  {
                    OFFSET 3.247555 -0.531998 2.296169
                    CHANNELS 3 Zrotation Yrotation Xrotation
                    JOINT LeftHandIndex2
                    {
                      OFFSET 6.364578 0.01206 0.1786
                      CHANNELS 3 Zrotation Yrotation Xrotation
                      JOINT LeftHandIndex3
                      {
                        OFFSET 3.662364 0.0 0.0
                        CHANNELS 3 Zrotation Yrotation Xrotation
                        JOINT LeftHandIndex4
                        {
                          OFFSET 2.329242 4e-06 4e-06
                          CHANNELS 3 Zrotation Yrotation Xrotation
                          JOINT LeftHandIndexEnd
                          {
                            OFFSET 2.759615 -0.180537 -0.113024
                            CHANNELS 3 Zrotation Yrotation Xrotation
                          }
                        }
                      }
                    }
                  }
                  JOINT LeftHandMiddle1
                  {
                    OFFSET 3.163495 0.240981 1.000332
                    CHANNELS 3 Zrotation Yrotation Xrotation
                    JOINT LeftHandMiddle2
                    {
                      OFFSET 6.19078 -0.259278 -1.002548
                      CHANNELS 3 Zrotation Yrotation Xrotation
                      JOINT LeftHandMiddle3
                      {
                        OFFSET 4.35652 -4e-06 -1e-06
                        CHANNELS 3 Zrotation Yrotation Xrotation
                        JOINT LeftHandMiddle4
                        {
                          OFFSET 2.996877 -8e-06 0.0
                          CHANNELS 3 Zrotation Yrotation Xrotation
                          JOINT LeftHandMiddleEnd
                          {
                            OFFSET 2.304287 -0.294569 -0.031741
                            CHANNELS 3 Zrotation Yrotation Xrotation
                          }
                        }
                      }
                    }
                  }
                  JOINT LeftHandRing1
                  {
                    OFFSET 2.882643 -0.053652 -0.322543
                    CHANNELS 3 Zrotation Yrotation Xrotation
                    JOINT LeftHandRing2
                    {
                      OFFSET 5.854541 -0.486202 -1.373841
                      CHANNELS 3 Zrotation Yrotation Xrotation
                      JOINT LeftHandRing3
                      {
                        OFFSET 4.350578 0.0 3e-06
                        CHANNELS 3 Zrotation Yrotation Xrotation
                        JOINT LeftHandRing4
                        {
                          OFFSET 2.651321 7e-06 2e-06
                          CHANNELS 3 Zrotation Yrotation Xrotation
                          JOINT LeftHandRingEnd
                          {
                            OFFSET 1.936105 0.077687 -7.1e-05
                            CHANNELS 3 Zrotation Yrotation Xrotation
                          }
                        }
                      }
                    }
                  }
                  JOINT LeftHandPinky1
                  {
                    OFFSET 2.8655 -0.310005 -1.600378
                    CHANNELS 3 Zrotation Yrotation Xrotation
                    JOINT LeftHandPinky2
                    {
                      OFFSET 5.087849 -1.331141 -1.77123
                      CHANNELS 3 Zrotation Yrotation Xrotation
                      JOINT LeftHandPinky3
                      {
                        OFFSET 3.070974 4e-06 0.0
                        CHANNELS 3 Zrotation Yrotation Xrotation
                        JOINT LeftHandPinky4
                        {
                          OFFSET 1.549672 0.0 1e-06
                          CHANNELS 3 Zrotation Yrotation Xrotation
                          JOINT LeftHandPinkyEnd
                          {
                            OFFSET 1.944893 -0.157802 0.057219
                            CHANNELS 3 Zrotation Yrotation Xrotation
                          }
                        }
                      }
                    }
                  }
                }
              }
            }
          }
          JOINT RightShoulder
          {
            OFFSET -1.380118 23.180309 5.214158
            CHANNELS 3 Zrotation Yrotation Xrotation
            JOINT RightArm
            {
              OFFSET -15.037196 1.2e-05 -5.545604
              CHANNELS 3 Zrotation Yrotation Xrotation
              JOINT RightForeArm
              {
                OFFSET -28.736639 2e-06 -0.002597
                CHANNELS 3 Zrotation Yrotation Xrotation
                JOINT RightHand
                {
                  OFFSET -27.133619 -0.0 0.002613
                  CHANNELS 3 Zrotation Yrotation Xrotation
                  JOINT RightHandThumb1
                  {
                    OFFSET -2.274032 -1.383988 3.163127
                    CHANNELS 3 Zrotation Yrotation Xrotation
                    JOINT RightHandThumb2
                    {
                      OFFSET -4.011429 -1.827466 1.640914
                      CHANNELS 3 Zrotation Yrotation Xrotation
                      JOINT RightHandThumb3
                      {
                        OFFSET -2.794935 -4e-06 -3e-06
                        CHANNELS 3 Zrotation Yrotation Xrotation
                        JOINT RightHandThumbEnd
                        {
                          OFFSET -3.183852 4e-06 1e-06
                          CHANNELS 3 Zrotation Yrotation Xrotation
                        }
                      }
                    }
                  }
                  JOINT RightHandIndex1
                  {
                    OFFSET -3.253266 -0.520057 2.282866
                    CHANNELS 3 Zrotation Yrotation Xrotation
                    JOINT RightHandIndex2
                    {
                      OFFSET -6.341917 0.012471 0.178266
                      CHANNELS 3 Zrotation Yrotation Xrotation
                      JOINT RightHandIndex3
                      {
                        OFFSET -3.654871 -8e-06 -0.0
                        CHANNELS 3 Zrotation Yrotation Xrotation
                        JOINT RightHandIndex4
                        {
                          OFFSET -2.327586 0.0 1e-06
                          CHANNELS 3 Zrotation Yrotation Xrotation
                          JOINT RightHandIndexEnd
                          {
                            OFFSET -2.76179 -0.180656 -0.113078
                            CHANNELS 3 Zrotation Yrotation Xrotation
                          }
                        }
                      }
                    }
                  }
                  JOINT RightHandMiddle1
                  {
                    OFFSET -3.168106 0.246593 1.00103
                    CHANNELS 3 Zrotation Yrotation Xrotation
                    JOINT RightHandMiddle2
                    {
                      OFFSET -6.180828 -0.258836 -1.000895
                      CHANNELS 3 Zrotation Yrotation Xrotation
                      JOINT RightHandMiddle3
                      {
                        OFFSET -4.348901 0.0 -0.0
                        CHANNELS 3 Zrotation Yrotation Xrotation
                        JOINT RightHandMiddle4
                        {
                          OFFSET -3.00024 -4e-06 -2e-06
                          CHANNELS 3 Zrotation Yrotation Xrotation
                          JOINT RightHandMiddleEnd
                          {
                            OFFSET -2.30252 -0.29437 -0.031706
                            CHANNELS 3 Zrotation Yrotation Xrotation
                          }
                        }
                      }
                    }
                  }
                  JOINT RightHandRing1
                  {
                    OFFSET -2.88569 -0.067952 -0.308858
                    CHANNELS 3 Zrotation Yrotation Xrotation
                    JOINT RightHandRing2
                    {
                      OFFSET -5.854198 -0.48613 -1.373731
                      CHANNELS 3 Zrotation Yrotation Xrotation
                      JOINT RightHandRing3
                      {
                        OFFSET -4.33881 -4e-06 -0.0
                        CHANNELS 3 Zrotation Yrotation Xrotation
                        JOINT RightHandRing4
                        {
                          OFFSET -2.654903 -4e-06 4e-06
                          CHANNELS 3 Zrotation Yrotation Xrotation
                          JOINT RightHandRingEnd
                          {
                            OFFSET -1.933568 0.077527 -5.2e-05
                            CHANNELS 3 Zrotation Yrotation Xrotation
                          }
                        }
                      }
                    }
                  }
                  JOINT RightHandPinky1
                  {
                    OFFSET -2.866425 -0.342796 -1.584145
                    CHANNELS 3 Zrotation Yrotation Xrotation
                    JOINT RightHandPinky2
                    {
                      OFFSET -5.091371 -1.332055 -1.772385
                      CHANNELS 3 Zrotation Yrotation Xrotation
                      JOINT RightHandPinky3
                      {
                        OFFSET -3.062664 -4e-06 1e-06
                        CHANNELS 3 Zrotation Yrotation Xrotation
                        JOINT RightHandPinky4
                        {
                          OFFSET -1.546529 4e-06 -2e-06
                          CHANNELS 3 Zrotation Yrotation Xrotation
                          JOINT RightHandPinkyEnd
                          {
                            OFFSET -1.945119 -0.157718 0.057211
                            CHANNELS 3 Zrotation Yrotation Xrotation
                          }
                        }
                      }
                    }
                  }
                }
              }
            }
          }
        }
      }
    }
    JOINT LeftLeg
    {
      OFFSET 10.043214 -8.434526 2.595655
      CHANNELS 3 Zrotation Yrotation Xrotation
      JOINT LeftShin
      {
        OFFSET -1e-06 -43.221752 -0.802913
        CHANNELS 3 Zrotation Yrotation Xrotation
        JOINT LeftFoot
        {
          OFFSET 1e-06 -42.155094 -3.481523
          CHANNELS 3 Zrotation Yrotation Xrotation
          JOINT LeftToeBase
          {
            OFFSET 0.0 -5.059472 13.231529
            CHANNELS 3 Zrotation Yrotation Xrotation
            JOINT LeftToeEnd
            {
              OFFSET -0.009607 -1.647619 6.513017
              CHANNELS 3 Zrotation Yrotation Xrotation
            }
          }
        }
      }
    }
    JOINT RightLeg
    {
      OFFSET -10.047278 -8.29526 2.620317
      CHANNELS 3 Zrotation Yrotation Xrotation
      JOINT RightShin
      {
        OFFSET 1e-06 -43.362206 -0.805556
        CHANNELS 3 Zrotation Yrotation Xrotation
        JOINT RightFoot
        {
          OFFSET 2e-06 -42.117393 -3.478398
          CHANNELS 3 Zrotation Yrotation Xrotation
          JOINT RightToeBase
          {
            OFFSET -0.0 -5.079609 13.284196
            CHANNELS 3 Zrotation Yrotation Xrotation
            JOINT RightToeEnd
            {
              OFFSET 0.009532 -1.634378 6.460591
              CHANNELS 3 Zrotation Yrotation Xrotation
            }
          }
        }
      }
    }
  }
}
MOTION
Frames: 5
Frame Time: 0.03333333333333333
0.0 0.0 0.0 0.0 -0.0 0.0 -2.912696 135.779892 -1.299268 5.795869 0.651745 -3.518404 -5.174993 0.873017 5.978834 -1.859634 1.345715 -2.536078 -5.830712 2.224594 28.323824 -3.49213 11.104258 44.547619 0.193785 6.381855 -3.304643 3.174225 5.933745 2.436302 7.6e-05 -2.2e-05 6e-06 -0.12681 0.109626 -0.065013 0.70472 -3.47823 -10.611891 -0.953325 3.699614 -10.643293 -9.848032 -6.958087 16.434069 -42.924557 -21.266935 20.27368 0.733456 -23.137299 -0.401172 7.573914 -6.875043 -3.612346 -5.882108 9.861289 0.702592 -10.936875 -0.360575 7.156207 1e-06 8.774828 -1e-06 -16.454283 19.028339 6.513272 -1.844033 2.498505 -2.507279 -10.163603 4.678947 4.621112 -20.97603 -4e-06 2e-06 -21.226295 2.451697 -3.594001 0.0 -6e-06 -1e-06 -1.362682 2.240798 -0.746325 -21.334921 0.584909 3.008325 -13.821219 -4e-06 1e-06 -23.887178 -0.249082 -0.839484 -61.149967 2.508587 -0.567355 -0.294024 1.679687 0.833257 -14.218214 0.093215 1.300581 -34.212067 -0.287565 0.967169 -20.033222 0.964536 1.212843 1e-06 1e-06 2e-06 -3.44039 0.788234 0.501656 -15.928192 -3.16731 2.999707 -6.338829 -1e-06 -0.0 -18.123455 3.648182 -4.905672 -4e-06 1e-06 0.0 13.501483 16.763081 21.559147 47.905148 37.796528 15.814009 -0.018348 34.920364 -0.580274 -19.094528 -1.036135 -6.415483 2.243543 -5.255038 -3.180159 14.282895 -0.826596 6.952504 -3e-06 -12.690609 -1e-06 16.577421 -18.053135 2.327499 1.665668 -1.955922 -2.878299 4.7278 -4.170588 4.993926 11.020528 3e-06 -3e-06 12.109055 -3.735716 -2.866782 -0.0 0.0 0.0 1.291985 -1.92855 -1.498091 14.800132 0.567469 3.865609 14.242577 -1.341736 -6.660658 19.631973 0.143926 -0.648243 49.916012 -0.49079 -6.047441 0.353031 -1.511151 -0.031941 20.222797 3.684312 2.316631 18.787275 6e-06 -1e-06 10.751631 -0.479869 1.397908 0.0 1e-06 -0.0 3.273808 0.305947 -0.580111 21.486818 11.830379 2.266134 8.162928 1e-06 -1e-06 18.399084 -3.798987 -4.940576 2e-06 -0.0 -0.0 -7.210365 6.779014 -1.232852 -0.007437 0.086093 19.471066 0.246836 1.838416 -19.228567 1.653044 -1.838345 -1.051671 0.0 0.0 2e-06 -6.412783 1.231277 -26.978228 0.025911 0.17023 86.149315 7.828953 2.150203 -9.10194 -1.385437 1.005658 -3.323494 -0.0 0.0 -2e-06 
0.0 0.0 0.0 0.0 -0.0 0.0 -2.684034 135.578857 -0.294986 5.052881 1.771036 -3.722662 -4.63191 0.772438 6.283675 -1.651013 1.050921 -2.416788 -5.153852 1.50765 28.469347 -3.229553 10.016022 44.477463 0.359673 6.398637 -3.268572 2.99084 5.913514 2.578153 7.6e-05 -2.3e-05 6e-06 -0.108998 0.109343 -0.067679 0.720338 -3.507428 -10.627577 -0.929296 3.722199 -10.636592 -9.708099 -7.290435 16.740578 -41.375416 -20.649866 18.744738 0.510809 -25.062021 -0.409509 7.832471 -7.053991 -2.456889 -5.882112 9.861293 0.702592 -10.93688 -0.360574 7.156212 -0.0 8.774831 -1e-06 -16.382971 18.931047 6.453416 -1.844033 2.498507 -2.507279 -10.163607 4.678948 4.621113 -20.976038 -1e-06 2e-06 -21.226303 2.451701 -3.594002 0.0 -6e-06 0.0 -1.362682 2.240799 -0.746322 -21.33493 0.584912 3.008326 -13.821225 -1e-06 1e-06 -23.887188 -0.249076 -0.839485 -61.24527 2.435606 -0.426037 -0.294026 1.679688 0.833255 -14.21822 0.093216 1.300583 -34.212074 -0.28756 0.96717 -20.03323 0.964538 1.212842 -1e-06 1e-06 0.0 -3.440391 0.788234 0.501655 -15.928201 -3.167311 2.999712 -6.338832 -0.0 1e-06 -18.123461 3.648189 -4.905674 -3e-06 1e-06 -2e-06 13.548844 16.469692 21.317743 47.597282 37.387527 15.156026 0.498913 34.332664 -0.274809 -18.558912 0.22696 -7.454947 2.243544 -5.255044 -3.180162 14.282914 -0.8266 6.952509 1e-06 -12.690623 -1e-06 16.463699 -17.943422 2.38428 1.665669 -1.955924 -2.878304 4.727808 -4.170595 4.993931 11.020544 -1e-06 -1e-06 12.109072 -3.735724 -2.866787 0.0 0.0 0.0 1.291988 -1.928552 -1.498091 14.800153 0.567463 3.865612 14.242599 -1.341742 -6.660667 19.632 0.14392 -0.64825 49.741459 -0.371777 -6.011134 0.353029 -1.511152 -0.03194 20.22282 3.684309 2.316634 18.787302 0.0 -5e-06 10.751644 -0.479872 1.397905 1e-06 2e-06 -1e-06 3.273813 0.305946 -0.580111 21.486845 11.830384 2.266133 8.16294 -1e-06 -3e-06 18.399118 -3.798992 -4.940587 3e-06 -0.0 -2e-06 -6.517203 7.782296 0.066627 -0.102957 -0.039662 20.765738 0.138327 0.590959 -20.969065 1.663348 -1.815354 -0.670593 -0.0 -1e-06 2e-06 -4.745317 -0.389588 -28.591204 -0.080248 -0.01003 80.206772 7.687393 1.762506 -9.714538 -1.386361 0.994075 -2.336767 -0.0 0.0 -4e-06 
0.0 0.0 0.0 0.0 -0.0 0.0 -2.202122 134.942734 2.237207 4.410885 2.957673 -3.770962 -4.17653 0.688473 6.435417 -1.500665 0.729056 -2.358638 -4.295427 0.834439 28.579391 -2.904614 8.885245 44.600239 0.511148 6.365068 -3.291059 2.830053 5.8681 2.725408 7.7e-05 -2.3e-05 6e-06 -0.066028 0.106852 -0.066824 0.742443 -3.525995 -10.626862 -0.863929 3.733105 -10.61072 -9.609428 -7.713184 17.195034 -39.870369 -19.938425 17.491472 0.252005 -27.229641 -0.390898 8.363468 -7.03999 -0.930086 -5.88211 9.86129 0.702592 -10.93688 -0.360575 7.156209 0.0 8.77483 -1e-06 -16.357298 18.935968 6.434078 -1.844034 2.498506 -2.507281 -10.163609 4.678948 4.621112 -20.97604 -2e-06 4e-06 -21.226301 2.451701 -3.593999 -1e-06 -6e-06 1e-06 -1.362682 2.240799 -0.746323 -21.334929 0.584912 3.008327 -13.821223 -2e-06 2e-06 -23.887186 -0.249074 -0.83948 -61.381157 2.437156 -0.442969 -0.294025 1.679688 0.833256 -14.218219 0.093216 1.300585 -34.212074 -0.287558 0.967174 -20.03323 0.964539 1.212843 0.0 1e-06 1e-06 -3.440392 0.788234 0.501655 -15.928201 -3.16731 2.999711 -6.338831 -0.0 2e-06 -18.123461 3.648186 -4.90567 -4e-06 1e-06 -2e-06 13.617921 16.153988 21.333244 46.829105 36.767071 14.899865 0.893107 33.758205 -0.10681 -17.766245 1.307102 -8.009953 2.243543 -5.255038 -3.180158 14.282896 -0.826597 6.952503 -1e-06 -12.690609 -1e-06 16.322968 -17.863001 2.44501 1.665667 -1.955924 -2.8783 4.7278 -4.170589 4.993925 11.020531 2e-06 -1e-06 12.109056 -3.735719 -2.866787 0.0 -0.0 0.0 1.291987 -1.92855 -1.498091 14.800136 0.567467 3.865608 14.24258 -1.341738 -6.660661 19.631975 0.143924 -0.648246 49.549374 -0.407198 -6.053676 0.35303 -1.511152 -0.031937 20.222801 3.684309 2.31663 18.787283 1e-06 -4e-06 10.751633 -0.47987 1.397904 1e-06 2e-06 -1e-06 3.273808 0.305946 -0.580112 21.48682 11.830378 2.26613 8.16293 2e-06 -3e-06 18.399094 -3.798985 -4.940582 3e-06 -0.0 -1e-06 -5.748911 8.661993 0.888435 -0.13411 -0.115887 22.860989 0.316523 -0.615078 -22.477859 1.680246 -1.749271 -0.511672 -0.0 0.0 2e-06 -3.264695 -2.305135 -29.32843 -0.115568 -0.108843 71.765396 8.019867 2.286179 -9.819223 -1.400273 1.00353 -1.914703 -0.0 -0.0 -1e-06 
0.0 0.0 0.0 0.0 -0.0 0.0 -1.822887 134.034042 4.585709 3.983703 3.985812 -3.725146 -3.775965 0.624073 6.45359 -1.377563 0.410542 -2.389284 -3.549963 0.403234 28.732622 -2.544899 7.8425 44.781063 0.603985 6.275459 -3.307388 2.736123 5.770174 2.821661 7.6e-05 -2.2e-05 5e-06 -0.02212 0.099259 -0.067946 0.757805 -3.535293 -10.59887 -0.791564 3.729091 -10.569386 -9.613828 -8.072697 17.704939 -38.413334 -19.225574 15.836992 0.029425 -29.495213 -0.381961 9.481482 -7.014589 0.312805 -5.882113 9.861296 0.702594 -10.936883 -0.360573 7.156212 0.0 8.774835 -0.0 -16.13023 18.94018 6.512932 -1.844034 2.498506 -2.507279 -10.163611 4.678951 4.621113 -20.976046 -2e-06 2e-06 -21.226311 2.451701 -3.594006 0.0 -7e-06 -1e-06 -1.362682 2.240801 -0.746323 -21.334936 0.584913 3.008325 -13.821229 -1e-06 0.0 -23.887196 -0.249078 -0.839486 -61.374584 2.494594 -0.437908 -0.294025 1.679689 0.833255 -14.218224 0.093216 1.300582 -34.212086 -0.287562 0.967169 -20.033236 0.964539 1.212842 0.0 -0.0 1e-06 -3.440392 0.788235 0.501658 -15.928203 -3.16731 2.999708 -6.338833 -0.0 1e-06 -18.123466 3.64819 -4.905677 -4e-06 0.0 -1e-06 13.630412 15.816821 21.360447 46.279846 35.827847 15.000605 1.09368 33.207623 -0.049197 -17.115028 2.125537 -8.252707 2.243542 -5.255038 -3.180159 14.282896 -0.826597 6.952501 -2e-06 -12.690612 2e-06 16.230953 -17.850309 2.462313 1.665667 -1.955923 -2.878303 4.727802 -4.170592 4.993924 11.020534 2e-06 -5e-06 12.109059 -3.735718 -2.866788 0.0 -0.0 0.0 1.291986 -1.928551 -1.49809 14.800136 0.567466 3.865607 14.242582 -1.341737 -6.660662 19.631975 0.143927 -0.648249 49.474976 -0.467366 -6.147486 0.353029 -1.51115 -0.031942 20.222801 3.684311 2.316625 18.787283 4e-06 -7e-06 10.751633 -0.479869 1.397905 1e-06 2e-06 -1e-06 3.273807 0.305948 -0.580111 21.486824 11.830382 2.266128 8.16293 2e-06 -4e-06 18.39909 -3.798987 -4.940583 3e-06 -1e-06 -1e-06 -5.091723 9.523071 1.524766 -0.127635 -0.131507 25.497869 0.635781 -1.686962 -24.093071 1.696129 -1.730365 -0.571792 -0.0 -0.0 2e-06 -1.98251 -4.10017 -29.123377 -0.097912 -0.12512 61.019478 8.865786 3.064187 -9.256706 -1.410729 1.044833 -1.931713 -0.0 -0.0 -1e-06 
0.0 0.0 0.0 0.0 -0.0 0.0 -1.455053 132.846634 6.915565 3.866566 4.74615 -3.573402 -3.445009 0.584081 6.375605 -1.25937 0.113289 -2.47685 -3.062533 0.187636 28.866713 -2.264484 7.057766 44.914192 0.767009 6.157461 -3.297455 2.655072 5.653754 2.933017 7.6e-05 -2.2e-05 6e-06 -0.018297 0.094638 -0.076734 0.748654 -3.548792 -10.604356 -0.77446 3.736483 -10.579488 -9.835698 -8.317327 18.210155 -37.060532 -18.347424 13.466784 -0.092282 -31.780943 -0.332356 11.155327 -7.173995 0.825891 -5.882105 9.861286 0.702592 -10.936875 -0.360576 7.156205 2e-06 8.774828 -2e-06 -15.863494 18.882906 6.563419 -1.844034 2.498505 -2.507279 -10.163604 4.678944 4.621109 -20.976034 -9e-06 1e-06 -21.226297 2.451694 -3.594 0.0 -5e-06 -0.0 -1.362683 2.240798 -0.746324 -21.334925 0.584906 3.008322 -13.82122 -5e-06 1e-06 -23.88718 -0.249083 -0.839481 -61.250084 2.560307 -0.464535 -0.294024 1.679688 0.833256 -14.218215 0.093213 1.300581 -34.212067 -0.287571 0.967174 -20.033222 0.964533 1.212845 -1e-06 0.0 0.0 -3.440389 0.788234 0.501654 -15.928192 -3.167314 2.999705 -6.338829 -2e-06 -1e-06 -18.123453 3.648179 -4.905673 -4e-06 -0.0 -2e-06 13.618511 15.49462 21.256468 46.0695 34.636906 15.302107 1.14361 32.494713 -0.039992 -16.573786 2.714223 -8.24562 2.243545 -5.255039 -3.180161 14.282902 -0.826595 6.952506 -4e-06 -12.690613 3e-06 16.182831 -17.84301 2.477182 1.665668 -1.955922 -2.878302 4.727803 -4.170591 4.993927 11.020536 4e-06 -4e-06 12.109061 -3.735717 -2.866787 -0.0 -0.0 0.0 1.291987 -1.928551 -1.49809 14.800139 0.567467 3.865608 14.242585 -1.341735 -6.660666 19.631985 0.143927 -0.648251 49.535004 -0.448535 -6.190118 0.353029 -1.511153 -0.031939 20.222809 3.684313 2.316628 18.787289 7e-06 -4e-06 10.751636 -0.479868 1.397905 0.0 2e-06 -1e-06 3.273808 0.305948 -0.580114 21.486832 11.830384 2.266129 8.162933 1e-06 -2e-06 18.399097 -3.798986 -4.940581 2e-06 -1e-06 0.0 -4.660444 10.37899 2.217985 -0.151168 -0.172181 28.116077 0.825288 -2.488749 -25.915161 1.709559 -1.746986 -0.845287 0.0 0.0 2e-06 -0.891535 -5.799667 -27.950071 -0.050535 -0.114798 48.760757 9.930592 3.046296 -7.955606 -1.399163 1.076722 -2.283107 0.0 0.0 -1e-06 
